<?xml version="1.0" encoding="UTF-8" standalone="no"?>
<svg id="svg2" xmlns:rdf="http://www.w3.org/1999/02/22-rdf-syntax-ns#" xmlns="http://www.w3.org/2000/svg" height="297mm" width="210mm" version="1.1" xmlns:cc="http://creativecommons.org/ns#" xmlns:dc="http://purl.org/dc/elements/1.1/">
 <defs id="defs4"></defs>
 <metadata id="metadata7">
  <rdf:RDF>
   <cc:Work rdf:about="">
    <dc:format>image/svg+xml</dc:format>
    <dc:type rdf:resource="http://purl.org/dc/dcmitype/StillImage"/>
    <dc:title/>
   </cc:Work>
  </rdf:RDF>
 </metadata>
 <g id="layer1" stroke="#919966">
  <path id="path3590" d="M289.31,92.25l0.07-0.062-0.07,0.062zm3.03,53.31c2.73,12.24,5.47,24.47,8.1,36.73,0.98,4.55,1.9,9.12,2.83,13.69,0.75,3.84,1.47,7.68,1.96,11.56,1.34,9.57,2.49,19.17,3.25,28.81,0.64,7.26,1.24,14.54,1.68,21.82,0.86,12.99,1.58,25.99,2.37,38.99,0.3,4.69,0.4,9.39,0.67,14.08,0.09,2.76,0.26,5.51,0.25,8.27,0.12,4.24-0.51,8.45-0.9,12.67-0.81,6.55-1.53,13.12-2.58,19.64-0.53,3.26-1.23,6.51-2.4,9.6-2.14,5.65-4.67,11.13-7.28,16.57-2.52,5.03-5.26,9.97-8.37,14.65-3.39,4.93-7.23,9.52-11.14,14.04-3.09,3.54-6.23,7.04-9.36,10.54-6.23,6.84-12.46,13.69-19.11,20.13-4.75,4.7-9.63,9.28-14.56,13.79-14.32,12.93-28.82,25.64-43.29,38.4-13.21,11.67-26.43,23.32-39.62,35.02-2.87,2.72-4.96,6.14-6.56,9.73-1.44,3.26-2.44,6.7-3.31,10.15-0.7,3.27-1.17,6.62-1.01,9.97,0.19,3.96,1.36,7.79,2.57,11.54,1.59,4.46,3.5,8.83,6.12,12.78,2.03,3.08,4.46,5.9,7.28,8.28,2.83,2.42,5.9,4.54,9.07,6.49,1.59,0.98,3.34,1.66,5.11,2.23,2.81,0.95,5.69,1.65,8.57,2.3,4.01,0.91,8.11,1.39,12.22,1.39,2.5,0.09,5.01-0.12,7.46-0.61,3.76-0.63,7.47-1.52,11.05-2.83,4.17-1.55,8.33-3.2,12.16-5.5,2.34-1.33,4.54-2.88,6.59-4.63,6.4-5.41,12.49-11.17,18.45-17.07,8.35-8.27,16.55-16.7,24.77-25.12,7.73-7.99,15.5-15.95,23.24-23.93,6.77-7.04,13.52-14.09,20.27-21.14,5.22-5.48,10.44-10.97,15.46-16.63,5.21-5.88,10.29-11.86,15.2-17.99,4.84-6.05,9.55-12.2,14.31-18.3,6.67-8.79,13.27-17.63,19.78-26.54,6.82-9.31,13.57-18.67,20.16-28.15,6.23-8.96,12.4-17.97,18.48-27.04,3.69-5.49,7.31-11.03,10.9-16.6,5.66-8.68,11.27-17.4,16.82-26.16,2.02-3.14,3.98-6.32,5.9-9.53,1.58-3.01,3.03-6.09,4.36-9.22,4.2-9.57,8.36-19.16,12.28-28.85,3.33-8.16,6.69-16.31,9.86-24.54,0.69-1.75,1.38-3.51,2.07-5.26-3.92,7.42-7.82,14.86-11.85,22.22-1.23,0.79-2.86,1.33-4.28,0.69-1.17-1.06-2.06-2.41-2.84-3.78-0.34-1.43-0.64-3.08,0.25-4.38,0.17-0.26,1.18-1.2,0.41-0.62-0.57,0.56-1.53,0.98-2.28,0.53-0.79-0.82-0.88-2.04-1.19-3.08-1.05-3.97-2.02-7.97-2.91-11.98,1.48,8.96,3.38,17.84,5.03,26.78,0.27,1.87,0.68,3.74,0.67,5.64-0.26,2.93-1.59,5.62-2.97,8.16-1.24,2.38-2.54,4.74-3.99,7-0.59,0.82-1.16,1.89-2.26,2.04-0.95,0.23-1.81-0.41-2.38-1.09-0.7-0.99-1.23-2.08-1.86-3.11-1.72-3.13-3-6.48-4.5-9.72-0.31-0.68-0.63-1.37-0.96-2.05,1.36,6.01,2.78,12.01,3.6,18.12,0.28,1.87,0.54,3.75,0.81,5.63-0.44,2.83-2.24,5.17-3.99,7.34-2.41,2.89-4.94,5.68-7.42,8.51-2.05,2.26-4.14,4.5-6.51,6.43-1.51,1.26-3.2,2.31-4.95,3.22-2.61,1.34-5.37,2.34-8.08,3.45-4.88,1.86-10.01,2.97-15.16,3.8-3.95,0.64-7.99,1.11-11.99,0.59-2.76-0.28-5.47-0.96-8.15-1.68-3.07-0.88-6.12-1.89-8.97-3.36-3.55-1.75-6.9-3.88-10.09-6.2-1.86-1.44-3.62-2.99-5.3-4.62-4.67-4.56-8.41-9.95-12.07-15.33-1.4-2.15-2.76-4.33-4.07-6.53-1.81-3.17-3.13-6.58-4.48-9.96-1-2.62-1.96-5.25-2.88-7.9-2.39-7.07-4.68-14.19-6.6-21.41-0.97-3.71-2.09-7.4-2.77-11.18-0.39-2.05-0.75-4.12-1-6.2-0.14-2.33,0.13-4.66,0.66-6.93,0.94-4.32,2.42-8.5,3.66-12.74,1.09-3.71,2.28-7.39,3.38-11.1,0.33-0.9,0.76-2.14-0.31-2.74-0.85-0.56-1.9-0.09-2.76,0.23-1.1,0.49-2.35,0.94-2.99,2.05-0.91,1.37-1.32,2.99-1.96,4.49-0.97,2.71-2.37,5.25-4.08,7.56-0.46,0.85-1.47,1.82-2.5,1.31-1-0.57-1.06-1.83-1.37-2.81-1.07-4.09-2.19-8.17-3.1-12.3-0.77-3.95-1.63-7.93-1.5-11.97,0.07-2.13,0.39-4.26,0.93-6.32,1.05-3.44,2.67-6.67,4.31-9.87,1.52-2.93,3.17-5.79,4.73-8.7-0.82,0.7-1.41,1.7-2.14,2.53-3.83,4.76-7.65,9.52-11.48,14.28-0.75,0.8-2.39,0.55-2.69-0.56-3.17-7.97-6.4-15.91-9.4-23.94-1.7-4.77-3.19-9.6-4.75-14.41-0.32-0.99-0.63-1.98-0.94-2.97,0.05,0.24,0.1,0.48,0.15,0.72zm204.5,64.1zm-8.31,22.93c-1.34,3.71-2.69,7.42-4.03,11.13,2.73-7.4,5.48-14.79,8.12-22.22-1.36,3.7-2.72,7.4-4.09,11.09z" stroke-opacity="0.64191278" fill-opacity="0.84758367" fill="#683a0b"/>
  <path id="path6172" d="m350.02,348.79a11.617,12.627,0,1,1,-23.234,0,11.617,12.627,0,1,1,23.234,0z" stroke-opacity="0.64191277999999996" fill-opacity="0.8959108" fill="#FFF"/>
  <path id="path6174" d="m350.02,348.79a11.617,12.627,0,1,1,-23.234,0,11.617,12.627,0,1,1,23.234,0z" stroke-opacity="0.64191278" fill-opacity="0.89591082" transform="translate(46.972093,11.111678)" fill="#FFF"/>
  <path id="path6178" d="m260.62,363.19a3.7881,4.2931,0,1,1,-7.5761,0,3.7881,4.2931,0,1,1,7.5761,0z" stroke-opacity="0.64191278" fill-opacity="0.89591082" transform="translate(78.286822,-12.121831)" fill="#000"/>
  <path id="path6178-5" d="m260.62,363.19a3.7881,4.2931,0,1,1,-7.5761,0,3.7881,4.2931,0,1,1,7.5761,0z" stroke-opacity="0.64191278" fill-opacity="0.89591082" transform="translate(123.99621,-0.25253786)" fill="#000"/>
 </g>
</svg>