<?xml version="1.0" encoding="UTF-8" standalone="no"?>
<svg id="svg2" xmlns:rdf="http://www.w3.org/1999/02/22-rdf-syntax-ns#" xmlns="http://www.w3.org/2000/svg" height="297mm" width="210mm" version="1.1" xmlns:cc="http://creativecommons.org/ns#" xmlns:xlink="http://www.w3.org/1999/xlink" xmlns:dc="http://purl.org/dc/elements/1.1/">
 <defs id="defs4">
  <linearGradient id="linearGradient6453">
   <stop id="stop6455" stop-color="#47b82c" offset="0"/>
   <stop id="stop6457" stop-color="#47b82c" stop-opacity="0" offset="1"/>
  </linearGradient>
  <radialGradient id="radialGradient6461" xlink:href="#linearGradient6453" gradientUnits="userSpaceOnUse" cy="163.81" cx="303.68" gradientTransform="matrix(1,0,0,1.9259404,0,-151.67529)" r="1.6364"/>
  <radialGradient id="radialGradient7966" gradientUnits="userSpaceOnUse" cy="163.81" cx="303.68" gradientTransform="matrix(1,0,0,1.9259404,0,-151.67529)" r="1.6364">
   <stop id="stop6455-7" stop-color="#47b82c" offset="0"/>
   <stop id="stop6457-2" stop-color="#47b82c" stop-opacity="0" offset="1"/>
  </radialGradient>
 </defs>
 <metadata id="metadata7">
  <rdf:RDF>
   <cc:Work rdf:about="">
    <dc:format>image/svg+xml</dc:format>
    <dc:type rdf:resource="http://purl.org/dc/dcmitype/StillImage"/>
    <dc:title/>
   </cc:Work>
  </rdf:RDF>
 </metadata>
 <g id="layer1">
  <g id="g9216" opacity="0.59272724" fill-opacity="0.89591082" transform="translate(-51.75775,-15.176808)" fill="#256017">
   <path id="path9218" d="m399,323.36c10.12-20.777-5.475-46.202,12.483-65.356,4.3069-15.305,3.6536-31.756,9.5174-46.644"/>
   <path id="path9220" d="m402,273.36c-0.0985-22.981-9.3743-45.31-5-68"/>
   <path id="path9222" d="m404,302.36c1.4182-20.618,17.631-35.007,23-54"/>
   <path id="path9224" d="m398,236.36c4.5423-13.175,13.764-24.76,15-39"/>
   <path id="path9226" d="m417,243.36c6.4332-11.401,9.2856-25.484,20-34"/>
   <path id="path9228" d="m394,248.36c-16.15-5.5819-7.7951-24.938-12-37"/>
  </g>
  <g id="g9314" opacity="0.59272724" fill-opacity="0.89591082" transform="translate(27.59931,13.590127)" fill="#256017">
   <path id="path9316" d="m399,323.36c10.12-20.777-5.475-46.202,12.483-65.356,4.3069-15.305,3.6536-31.756,9.5174-46.644"/>
   <path id="path9318" d="m402,273.36c-0.0985-22.981-9.3743-45.31-5-68"/>
   <path id="path9320" d="m404,302.36c1.4182-20.618,17.631-35.007,23-54"/>
   <path id="path9322" d="m398,236.36c4.5423-13.175,13.764-24.76,15-39"/>
   <path id="path9324" d="m417,243.36c6.4332-11.401,9.2856-25.484,20-34"/>
   <path id="path9326" d="m394,248.36c-16.15-5.5819-7.7951-24.938-12-37"/>
  </g>
  <g id="g9300" opacity="0.59272724" fill-opacity="0.89591082" transform="translate(44.132031,-2.2812853)" fill="#256017">
   <path id="path9302" d="m399,323.36c10.12-20.777-5.475-46.202,12.483-65.356,4.3069-15.305,3.6536-31.756,9.5174-46.644"/>
   <path id="path9304" d="m402,273.36c-0.0985-22.981-9.3743-45.31-5-68"/>
   <path id="path9306" d="m404,302.36c1.4182-20.618,17.631-35.007,23-54"/>
   <path id="path9308" d="m398,236.36c4.5423-13.175,13.764-24.76,15-39"/>
   <path id="path9310" d="m417,243.36c6.4332-11.401,9.2856-25.484,20-34"/>
   <path id="path9312" d="m394,248.36c-16.15-5.5819-7.7951-24.938-12-37"/>
  </g>
  <g id="g9286" opacity="0.59272727" fill-opacity="0.89591080000000001" transform="translate(-63,-37)" fill="#256017">
   <path id="path9288" d="m399,323.36c10.12-20.777-5.475-46.202,12.483-65.356,4.3069-15.305,3.6536-31.756,9.5174-46.644"/>
   <path id="path9290" d="m402,273.36c-0.0985-22.981-9.3743-45.31-5-68"/>
   <path id="path9292" d="m404,302.36c1.4182-20.618,17.631-35.007,23-54"/>
   <path id="path9294" d="m398,236.36c4.5423-13.175,13.764-24.76,15-39"/>
   <path id="path9296" d="m417,243.36c6.4332-11.401,9.2856-25.484,20-34"/>
   <path id="path9298" d="m394,248.36c-16.15-5.5819-7.7951-24.938-12-37"/>
  </g>
  <path id="path3590" d="M293.28,149.97c3.03,16.05,6.13,32.09,9.06,48.16,0.83,4.24,1.65,8.5,2.04,12.81,0.69,6.73,1.04,13.5,1.56,20.25,1.61,22.89,3.18,45.77,4.58,68.67,0.42,6.89,0.9,13.79,1.21,20.7,0.18,3.43,0.13,6.88-0.21,10.3-0.54,5.61-1.24,11.22-2.47,16.73-1.07,4.66-2.68,9.17-4.24,13.69-1.46,4.21-3.32,8.26-5.37,12.2-3.43,6.75-6.67,13.68-11.33,19.69-3.74,4.61-7.67,9.08-11.56,13.56-8.79,10.02-17.79,19.86-26.97,29.53-4.74,4.87-9.55,9.65-14.46,14.35-22.78,22-45.73,43.84-68.54,65.81-2.89,2.82-5.84,5.58-8.67,8.46-3.02,3.27-5.79,6.87-7.54,10.99-1.63,4.13-2.67,8.47-3.45,12.84-0.48,3.11-0.47,6.31,0.31,9.37,0.86,4.04,2.23,7.95,3.82,11.74,1.88,4.15,4.6,7.86,7.55,11.31,2.45,2.93,5.23,5.58,8.32,7.83,2.96,2.25,6.19,4.19,9.72,5.39,2.37,0.84,4.88,1.19,7.36,1.63,5.85,0.92,11.88,1.64,17.74,0.43,2.87-0.55,5.62-1.6,8.36-2.58,3.76-1.45,7.44-3.09,11.04-4.86,4.72-2.44,9.17-5.42,13.12-8.96,8.48-7.27,16.78-14.74,24.75-22.56,10.56-10.35,20.95-20.89,31.33-31.42,10.24-10.44,20.53-20.82,30.53-31.48,4.21-4.52,8.17-9.26,12.09-14.02,7.49-9.26,14.98-18.51,22.44-27.8,4.18-5.24,8.36-10.48,12.46-15.79,6.6-8.49,12.94-17.17,19.2-25.91,5.55-7.82,11.01-15.7,16.42-23.61,7.88-11.69,15.76-23.38,23.57-35.11,6.4-9.71,12.93-19.34,19.19-29.14,2.18-3.47,4.25-7.01,5.99-10.72,5.14-10.75,10.1-21.58,15.13-32.37,5.72-12.36,11.46-24.71,17.16-37.07,0.83-2.06,1.97-4,2.51-6.16,0.01-0.63,0.5-2.04-0.28-2.16-1,0.38-0.75,1.77-1.34,2.54-1.2,2.71-2.54,5.36-3.91,7.99-0.73,0.93-2.2,0.45-2.78-0.41-3.26-2.7-6.36-5.7-8.56-9.34-0.44-0.81-0.79-0.36-0.44,0.33,0.61,1.96,2.28,3.29,3.46,4.9,1.85,2.25,4.03,4.33,5.13,7.08,0.2,1.49-1.12,2.5-1.97,3.53-2.18,2.4-4.25,4.91-6.65,7.1-1.22,0.61-2.56-0.4-3.03-1.5-1.59-2.95-3.28-6.04-3.38-9.47,0.1-1.38,0.27-2.74,0.5-4.1,1.14-0.01,0.19-2.18-0.53-1.18-1,2-1.95,4.25-3.94,5.46-0.96,1.05-0.57,2.63,0.01,3.77,2.09,5.4,4.36,10.94,4.43,16.82,0.16,4.05-0.31,8.13-1.37,12.04-0.59,1.87-1.4,3.67-2.62,5.22-0.66,0.78-1.42,1.57-2.35,2-1.15,0.3-2.38-0.74-2.38-1.91-0.86-4.45-1.56-8.99-3.28-13.22-1.15-3.2-2.41-6.36-3.66-9.53-0.04-0.65-0.44-2.3-1.34-1.53-0.07,1.12,0.66,2.06,0.76,3.15,1.39,5.67,2.49,11.52,2,17.39-0.31,6.43-1.14,12.83-1.39,19.27-0.3,1.16-2.01,0.66-2.14-0.36-1.44-2.9-3.2-5.64-4.6-8.56-1.67-3.31-3.27-6.68-4.46-10.19-0.74-2.35-1.05-4.98-0.05-7.31,0.57-1.72,1.51-3.3,2.04-5.05-0.13-1.22-1.86-1.33-2.34-0.26-1.1,1.32-1.75,3.2-3.48,3.86-1.4,0.62-2.85-0.27-4.15-0.76-0.88-0.31-1.9-1.01-2.82-0.43-0.9,0.84-0.36,2.13,0.34,2.9,2.46,3.76,4.97,7.51,7,11.53,1.33,2.66,2.44,5.41,3.7,8.1,1.83,4.09,3.63,8.2,5.31,12.35,0.51,1.67-0.51,3.25-1.49,4.51-2.01,2.52-4.24,4.84-6.69,6.92-2.41,2.12-5.12,3.86-7.82,5.57-3.31,1.94-6.81,3.59-10.51,4.61-6.04,1.55-12.2,2.83-18.45,2.95-4.04,0.07-8.02-0.79-11.85-1.97-4.53-1.37-8.94-3.15-13.07-5.47-2.83-1.64-5.55-3.5-7.97-5.72-3.83-3.42-7.38-7.19-10.32-11.41-2.45-3.6-4.86-7.23-7.08-10.96-1.81-3.08-3.21-6.36-4.62-9.64-3.14-7.26-6.14-14.58-8.84-22.01-0.57-1.59-1.11-3.23-1-4.94,0.11-2.64,1.15-5.11,1.92-7.6,2.74-8.21,5.57-16.38,8.38-24.56-3.98,7.12-7.88,14.29-11.59,21.56-0.69,1.04-2.73,0.34-2.47-0.94,1.01-10.33,2.19-20.65,3.41-30.97,2.01-6.61,5.9-12.4,9.44-18.27,1.22-2.01,2.45-4.01,3.68-6.01-1.93,1.25-3.32,3.21-5.37,4.28-1.28,0.33-2.58-0.94-2.44-2.22-0.24-7.91-0.63-15.84-0.1-23.74-0.99-0.53-1.41,0.89-1.37,1.65-0.09,3.18-0.79,6.3-1.25,9.43-0.82,4.31-1.39,8.69-2.91,12.83-1.67,4.87-3.97,9.5-6.51,13.97-0.76,1.41-1.65,2.74-2.52,4.08-1.07,1.11-3.16,0.6-3.72-0.81-1.46-2.66-2.3-5.6-2.78-8.59-0.6-3.66-1-7.41-0.55-11.11,0.28-2.64,1.05-5.2,1.96-7.69,1.22-3.6,2.58-7.16,3.87-10.73,0-1.06-1.48-1.71-2.22-0.91-2.94,2.13-5.37,4.93-8.53,6.78-1.92,0.79-4.11-0.26-5.3-1.83-2.01-2.31-2.81-5.34-4.11-8.06-2.75-6.59-5.44-13.21-8.21-19.8,0,0.01-0.22-0.33-0.19-0.12z" stroke-opacity="0.64191278" fill-opacity="0.84758367" stroke="#919966" fill="#683a0b"/>
  <path id="path6172" d="m350.02,348.79a11.617,12.627,0,1,1,-23.234,0,11.617,12.627,0,1,1,23.234,0z" stroke-opacity="0.64191277999999996" fill-opacity="0.8959108" stroke="#919966" fill="#FFF"/>
  <path id="path6174" d="m350.02,348.79a11.617,12.627,0,1,1,-23.234,0,11.617,12.627,0,1,1,23.234,0z" stroke-opacity="0.64191278" fill-opacity="0.89591082" transform="translate(46.972093,11.111678)" stroke="#919966" fill="#FFF"/>
  <path id="path6178" d="m260.62,363.19a3.7881,4.2931,0,1,1,-7.5761,0,3.7881,4.2931,0,1,1,7.5761,0z" stroke-opacity="0.64191278" fill-opacity="0.89591082" transform="translate(78.286822,-12.121831)" stroke="#919966" fill="#000"/>
  <path id="path6178-5" d="m260.62,363.19a3.7881,4.2931,0,1,1,-7.5761,0,3.7881,4.2931,0,1,1,7.5761,0z" stroke-opacity="0.64191278" fill-opacity="0.89591082" transform="translate(123.99621,-0.25253786)" stroke="#919966" fill="#000"/>
  <path id="path6451" d="m304.81,163.81a1.1364,2.6517,0,1,1,-2.2728,0,1.1364,2.6517,0,1,1,2.2728,0z" transform="matrix(1.7777778,0,0,1.7777778,-237.07721,-125.34286)" fill="url(#radialGradient6461)"/>
  <path id="path7901" d="m304.81,163.81a1.1364,2.6517,0,1,1,-2.2728,0,1.1364,2.6517,0,1,1,2.2728,0z" transform="matrix(1.7777778,0,0,1.7777778,-218.86921,-107.13486)" fill="url(#radialGradient6461)"/>
  <path id="path7905" d="m304.81,163.81a1.1364,2.6517,0,1,1,-2.2728,0,1.1364,2.6517,0,1,1,2.2728,0z" transform="matrix(1.7777778,0,0,1.7777778,-207.02517,-65.41556)" fill="url(#radialGradient6461)"/>
  <path id="path7905-2" d="m304.81,163.81a1.1364,2.6517,0,1,1,-2.2728,0,1.1364,2.6517,0,1,1,2.2728,0z" transform="matrix(1.7777778,0,0,1.7777778,-97.928713,-6.7677778)" fill="url(#radialGradient7966)"/>
  <path id="path7905-9" d="m304.81,163.81a1.1364,2.6517,0,1,1,-2.2728,0,1.1364,2.6517,0,1,1,2.2728,0z" transform="matrix(1.7777778,0,0,1.7777778,-83.786577,-31.516515)" fill="url(#radialGradient7966)"/>
  <path id="path7905-1" d="m304.81,163.81a1.1364,2.6517,0,1,1,-2.2728,0,1.1364,2.6517,0,1,1,2.2728,0z" transform="matrix(1.7777778,0,0,1.7777778,-61.15916,-55.558146)" fill="url(#radialGradient7966)"/>
  <path id="path9328" opacity="0.59272723999999999" d="m276.5,504.35c-4.0116,0.3854-7.0863,3.3522-9.583,6.2706-8.0429,8.9509-17.573,16.774-28.623,21.698-4.1939,2.0104-9.1552,3.3779-13.705,1.7321-5.4938-1.8064-9.5257-6.2119-14.526-8.929-3.4152-1.9522-7.6888-3.1911-11.488-1.5901-3.1655,1.1609-6.0391,4.2138-5.6386,7.7876,0.32225,3.184,2.6394,5.7666,5.2772,7.3672,7.1896,5.412,15.299,9.9867,24.261,11.551,4.7177,0.91161,9.5052,1.4822,14.296,1.8105,5.7364,0.26441,11.596-0.57658,16.803-3.0884,8.4762-3.7026,15.428-10.058,21.781-16.64,4.0669-4.1772,8.0069-8.7117,10.262-14.144,1.173-3.3708,1.172-7.4946-1.168-10.353-1.8852-2.4241-4.8986-3.7577-7.9496-3.4724z" fill-opacity="0.51672864" fill="#db4c3a"/>
 </g>
</svg>